# xmcd
#
# Track frame offsets:
# 150
# 11280
# 33787
# 50371
# 68982
# 87329
# 104920
# 120205
# 136904
# 158800
# 176567
# 198025
#
# Disc length: 2883 seconds
#
#
# Revision: 0
# Processed by: cddbd v1.5.2PL0 Copyright (c) Steve Scherf et al.
# Submitted via: FreeRIP 2.951 
#
DISCID=910b410c
DTITLE=The New Outlaws - The New Outlaws
DYEAR=2006
DGENRE=Country
TTITLE0=New Outlaws
TTITLE1=On The Run
TTITLE2=Do You Believe
TTITLE3=Bob and Maude
TTITLE4=I'm Takin' It Easy
TTITLE5=I'm So Lonesome I Could Cry
TTITLE6=Red, White and Blue
TTITLE7=Hell Bent Heroes
TTITLE8=If I Could Find a Better Way
TTITLE9=High On You
TTITLE10=Tomorrow's Another Day
TTITLE11=When
EXTD=
EXTT0=
EXTT1=
EXTT2=
EXTT3=
EXTT4=
EXTT5=
EXTT6=
EXTT7=
EXTT8=
EXTT9=
EXTT10=
EXTT11=
PLAYORDER=
